Coordinates
version=1
nRows=29
nColumns=24
inDegrees=yes

Units are S.I. units (second, meters, Newtons, ...)
Angles are in degrees.

endheader
time	pelvis_tilt	pelvis_list	pelvis_rotation	pelvis_tx	pelvis_ty	pelvis_tz	hip_flexion_r	hip_adduction_r	hip_rotation_r	knee_angle_r	ankle_angle_r	subtalar_angle_r	mtp_angle_r	hip_flexion_l	hip_adduction_l	hip_rotation_l	knee_angle_l	ankle_angle_l	subtalar_angle_l	mtp_angle_l	lumbar_extension	lumbar_bending	lumbar_rotation
      1.36683333	      3.64230425	      5.13996611	     -2.88588893	      0.35900869	      1.02603019	      0.27168395	      8.87158325	     -3.97858214	      0.59825715	    -63.44586619	      3.47467385	    -20.08383913	      1.28023920	      2.98301506	      8.30604947	      1.16441690	    -10.36991531	      2.49654514	    -13.73099367	      2.75584018	     -6.33864569	     -7.16308158	      5.97241436
      1.37100000	      3.65587642	      5.02366952	     -2.72980066	      0.36415632	      1.02675773	      0.27131669	      9.34363888	     -3.82981526	      0.45082072	    -62.95645315	      3.68994203	    -20.01265631	      1.21691850	      2.43022374	      8.22814045	      1.46244157	     -9.97049286	      2.54912840	    -13.87641824	      2.67316571	     -6.40525486	     -7.02787972	      5.56838067
      1.37516667	      3.61725726	      4.92177772	     -2.61317708	      0.36933088	      1.02735762	      0.27106547	      9.87436531	     -3.67727062	      0.36077066	    -62.43824846	      3.91716840	    -20.02671206	      1.20881518	      1.95703613	      8.13999264	      1.57970579	     -9.61027624	      2.62142611	    -13.78336862	      2.66073340	     -6.38005675	     -6.91700635	      5.50418449
      1.37933333	      3.66529355	      4.78769563	     -2.41473816	      0.37445329	      1.02809332	      0.27066106	     10.26499749	     -3.52549417	      0.15645102	    -61.82921886	      4.15625213	    -19.95852664	      1.12835582	      1.36477327	      8.03944155	      1.94217573	     -9.19891507	      2.56836997	    -14.01972818	      2.54015055	     -6.50712006	     -6.75577586	      5.00396160
      1.38350000	      3.66032383	      4.66210305	     -2.25257534	      0.37958935	      1.02869268	      0.27033178	     10.71722664	     -3.37219363	      0.00249784	    -61.19216362	      4.33529792	    -19.91348514	      1.06937482	      0.85047262	      7.93129534	      2.18437468	     -8.83178728	      2.64308801	    -14.07634571	      2.45020658	     -6.54845503	     -6.60012104	      4.76803932
      1.38766667	      3.67785955	      4.54450631	     -2.09231897	      0.38471526	      1.02927694	      0.27002224	     11.13269338	     -3.23193160	     -0.15498930	    -60.51361929	      4.52868568	    -19.88276428	      1.01092773	      0.30946062	      7.82658648	      2.41398334	     -8.45116154	      2.67637398	    -14.12919165	      2.35837408	     -6.61304881	     -6.46158424	      4.49310876
      1.39183333	      3.64911982	      4.41803563	     -1.92538356	      0.38986464	      1.02977332	      0.26971974	     11.57994854	     -3.08102546	     -0.31345605	    -59.78317679	      4.71611074	    -19.86928165	      0.97633613	     -0.16227503	      7.70257663	      2.59009869	     -8.11156895	      2.71422659	    -14.12429656	      2.30310859	     -6.60797574	     -6.31777459	      4.31074559
      1.39600000	      3.68310528	      4.31578586	     -1.77423842	      0.39496931	      1.03028815	      0.26941820	     11.95931985	     -2.96647480	     -0.46298092	    -59.02992657	      4.86542144	    -19.87067866	      0.91811410	     -0.72976416	      7.61169476	      2.84564458	     -7.70659866	      2.76163542	    -14.20998973	      2.21348119	     -6.70320692	     -6.19068967	      3.96464305
      1.40016667	      3.68678306	      4.20584399	     -1.61558483	      0.40008703	      1.03074547	      0.26913879	     12.35107628	     -2.84255340	     -0.61775140	    -58.22400392	      5.01271173	    -19.87705930	      0.85968023	     -1.24979101	      7.50283967	      3.06450053	     -7.33003388	      2.79363160	    -14.26982850	      2.12439733	     -6.74600559	     -6.05945477	      3.70348584
      1.40433333	      3.66458511	      4.09490135	     -1.45893471	      0.40521017	      1.03111367	      0.26887528	     12.75869702	     -2.71702311	     -0.76411607	    -57.38256848	      5.17818994	    -19.88336456	      0.82667199	     -1.72194633	      7.38435682	      3.21988128	     -6.99181718	      2.82242377	    -14.24657268	      2.07488488	     -6.75392709	     -5.93385221	      3.53950941
      1.40850000	      3.69517327	      4.01112467	     -1.31984600	      0.41030418	      1.03149073	      0.26862918	     13.10743551	     -2.62676022	     -0.89811961	    -56.51911555	      5.27651613	    -19.93450471	      0.75773609	     -2.28063450	      7.30132927	      3.45837612	     -6.58926775	      2.86742816	    -14.34567265	      1.97652127	     -6.83600027	     -5.83727765	      3.18724305
      1.41266667	      3.69432803	      3.91762039	     -1.17631694	      0.41540592	      1.03180172	      0.26839149	     13.47221042	     -2.52755658	     -1.03569780	    -55.61133107	      5.38495368	    -19.96471202	      0.69406852	     -2.78800843	      7.19991695	      3.64752298	     -6.21935885	      2.90996085	    -14.38830449	      1.88826671	     -6.87091719	     -5.72338669	      2.95903279
      1.41683333	      3.70096535	      3.82262753	     -1.03524565	      0.42050754	      1.03208571	      0.26817044	     13.81244549	     -2.42634143	     -1.16553850	    -54.66293297	      5.47424550	    -20.02075445	      0.62414010	     -3.30111458	      7.09281454	      3.83278382	     -5.85369561	      2.94557779	    -14.42533194	      1.79497964	     -6.91663717	     -5.61523871	      2.71205478
      1.42100000	      3.69898899	      3.74961786	     -0.90686157	      0.42559194	      1.03228409	      0.26797514	     14.16102090	     -2.35097667	     -1.28089788	    -53.70184336	      5.56032382	    -20.06944627	      0.54631198	     -3.80024246	      7.00761280	      4.00581760	     -5.49203754	      2.98245019	    -14.46883149	      1.69340250	     -6.95231042	     -5.53228041	      2.47367453
      1.42516667	      3.68984801	      3.66100815	     -0.77722695	      0.43069424	      1.03245939	      0.26779145	     14.49451237	     -2.25951254	     -1.39763393	    -52.68966414	      5.61399921	    -20.13388607	      0.47024981	     -4.28779452	      6.90084931	      4.16271452	     -5.13961552	      3.03215989	    -14.48994964	      1.59841893	     -6.97509899	     -5.43285508	      2.25904468
      1.42933333	      3.65677484	      3.58774677	     -0.65614163	      0.43579075	      1.03252891	      0.26760868	     14.84993746	     -2.18851547	     -1.50323714	    -51.66417839	      5.69411763	    -20.15145410	      0.43148400	     -4.73079159	      6.80921518	      4.27258133	     -4.82310155	      3.08409928	    -14.45673211	      1.55229002	     -6.96225079	     -5.33764144	      2.12574911
      1.43350000	      3.67225536	      3.52454892	     -0.54919108	      0.44086391	      1.03263049	      0.26747287	     15.14227099	     -2.12626436	     -1.59528588	    -50.60577832	      5.68576430	    -20.25182052	      0.35926883	     -5.24908769	      6.72782389	      4.43663887	     -4.45728841	      3.15449572	    -14.50986666	      1.46977006	     -7.02136931	     -5.27011887	      1.85385238
      1.43766667	      3.63733407	      3.45004460	     -0.44035777	      0.44596837	      1.03262660	      0.26733142	     15.46936827	     -2.05442393	     -1.68542679	    -49.51324066	      5.73591241	    -20.26219444	      0.32091083	     -5.68749357	      6.63046563	      4.53319397	     -4.14509763	      3.20272952	    -14.48383737	      1.42629351	     -7.00636552	     -5.18003040	      1.72918000
      1.44183333	      3.65329499	      3.39407732	     -0.35075060	      0.45104493	      1.03263740	      0.26722481	     15.73623686	     -2.00050404	     -1.75348667	    -48.39807734	      5.69223896	    -20.36483902	      0.24779657	     -6.20315144	      6.55502858	      4.68626524	     -3.78646602	      3.27916847	    -14.53926277	      1.34501889	     -7.06409679	     -5.12187825	      1.47689374
      1.44600000	      3.61087695	      3.34031835	     -0.25927595	      0.45614303	      1.03252073	      0.26712094	     16.05365052	     -1.95173631	     -1.82013948	    -47.26254540	      5.67558134	    -20.40707744	      0.17224646	     -6.64025434	      6.47969537	      4.81537901	     -3.46044290	      3.34127354	    -14.57876589	      1.25900018	     -7.04509466	     -5.06164566	      1.29107511
      1.45016667	      3.59575532	      3.28748458	     -0.18076732	      0.46124164	      1.03240064	      0.26703953	     16.32670762	     -1.90352055	     -1.87490708	    -46.09588535	      5.64957579	    -20.44063828	      0.09392530	     -7.10546632	      6.40446624	      4.91892723	     -3.13690681	      3.40677365	    -14.59555395	      1.16888327	     -7.05532725	     -5.00158542	      1.12305405
      1.45433333	      3.53605514	      3.24223767	     -0.10866992	      0.46635204	      1.03217357	      0.26696967	     16.63951769	     -1.86722114	     -1.92693300	    -44.91413176	      5.63675345	    -20.40439710	      0.05848797	     -7.50563626	      6.33684982	      4.97934675	     -2.84906641	      3.48495164	    -14.56604687	      1.12890128	     -7.00649748	     -4.94366088	      1.03228222
      1.45850000	      3.51609924	      3.18895375	     -0.04241056	      0.47145523	      1.03196272	      0.26691635	     16.88838592	     -1.81973985	     -1.96951990	    -43.69047770	      5.56848921	    -20.41757572	      0.01612285	     -7.95504520	      6.25992462	      5.05995859	     -2.55074795	      3.57963624	    -14.55954479	      1.08158590	     -7.00740410	     -4.87897821	      0.89263319
      1.46266667	      3.50011340	      3.15418602	      0.01096898	      0.47654252	      1.03170514	      0.26690503	     17.12898541	     -1.78692403	     -1.99070140	    -42.45789435	      5.46220702	    -20.47205175	     -0.05119797	     -8.41856363	      6.20266991	      5.17311847	     -2.23000257	      3.67509426	    -14.59853943	      1.00078025	     -7.03561139	     -4.85308816	      0.69622547
      1.46683333	      3.42171379	      3.12377798	      0.05841691	      0.48166815	      1.03129831	      0.26688204	     17.43136386	     -1.76993737	     -2.02961813	    -41.22393101	      5.42033950	    -20.38597186	     -0.08034071	     -8.79134919	      6.15221006	      5.20600062	     -1.95971403	      3.76995659	    -14.58337826	      0.96402471	     -6.96696653	     -4.81503287	      0.62153181
      1.47100000	      3.40782443	      3.08932086	      0.10401972	      0.48676265	      1.03096747	      0.26688825	     17.63520582	     -1.73725185	     -2.03663845	    -39.93144292	      5.28094809	    -20.41389779	     -0.14396757	     -9.24789610	      6.09528829	      5.31443945	     -1.66189290	      3.87749209	    -14.61256889	      0.87788796	     -6.97942241	     -4.78091639	      0.44339688
      1.47516667	      3.33460005	      3.06920567	      0.14152644	      0.49188470	      1.03049408	      0.26689011	     17.90231951	     -1.72965306	     -2.05687526	    -38.64586591	      5.20430149	    -20.29385266	     -0.17318268	     -9.61850513	      6.05661953	      5.35255808	     -1.41046255	      3.98363920	    -14.60148953	      0.83395910	     -6.90718750	     -4.74788815	      0.37075360
      1.47933333	      3.30347931	      3.03581790	      0.17648314	      0.49699153	      1.03005079	      0.26693024	     18.10038529	     -1.69916057	     -2.06315766	    -37.31712779	      5.06044505	    -20.26306952	     -0.21989628	    -10.04636839	      6.00027956	      5.43149218	     -1.13475528	      4.10320307	    -14.61356510	      0.75630605	     -6.91923358	     -4.72270410	      0.23148078
      1.48350000	      3.22511142	      3.02286131	      0.20074763	      0.50212827	      1.02948767	      0.26696357	     18.34648398	     -1.69760761	     -2.07259966	    -35.99065819	      4.95214202	    -20.12101679	     -0.24467431	    -10.40872899	      5.97085945	      5.46377433	     -0.89265545	      4.22524165	    -14.60323231	      0.70801548	     -6.83947276	     -4.69814936	      0.15791464
